<svg width="26" height="26" viewBox="0 0 26 26" fill="none" xmlns="http://www.w3.org/2000/svg">
<path opacity="0.2" d="M13 26C20.1797 26 26 20.1797 26 13C26 5.8203 20.1797 0 13 0C5.8203 0 0 5.8203 0 13C0 20.1797 5.8203 26 13 26Z" fill="#004651"/>
<path fill-rule="evenodd" clip-rule="evenodd" d="M16.6893 6.17002C15.5164 5.45696 14.1693 5.07923 12.7874 5.07923C11.5177 5.07923 10.2635 5.39914 9.16414 6.00814L8.63382 5.06381C9.89188 4.36617 11.328 4 12.7835 4C14.3667 4 15.9151 4.43169 17.2583 5.24882L16.6893 6.17002Z" fill="#004651"/>
<path fill-rule="evenodd" clip-rule="evenodd" d="M20.7936 10.698C20.5072 9.6727 20.0117 8.73993 19.3188 7.91895L20.0194 7.34079C20.7936 8.26199 21.3472 9.31038 21.6685 10.4551L20.7936 10.698Z" fill="#00BFEC"/>
<path fill-rule="evenodd" clip-rule="evenodd" d="M18.9682 19.5717L18.2637 18.7469C19.9437 17.3362 20.9076 15.2779 20.9076 13.1002H21.9992C21.9992 15.594 20.896 17.9529 18.9682 19.5717Z" fill="#004651"/>
<path fill-rule="evenodd" clip-rule="evenodd" d="M12.6893 21.991C10.7035 21.991 8.76803 21.3011 7.23899 20.0523L7.93577 19.2159C9.26738 20.3066 10.959 20.9079 12.6893 20.9079C13.9009 20.9079 15.0583 20.6304 16.1229 20.0831L16.6261 21.0428C15.4222 21.6634 14.0596 21.991 12.6893 21.991Z" fill="#004651"/>
<path fill-rule="evenodd" clip-rule="evenodd" d="M5.39355 17.2715C4.48 15.8994 4 14.3036 4 12.6578C4 10.3645 4.91742 8.22142 6.58194 6.6257L7.2129 7.27709C5.73032 8.69936 4.90968 10.6111 4.90968 12.6578C4.90968 14.1263 5.33935 15.5525 6.15226 16.7743L5.39355 17.2715Z" fill="#00BFEC"/>
<path fill-rule="evenodd" clip-rule="evenodd" d="M7.10614 12.6948C7.10614 15.736 9.60679 18.2143 12.6803 18.2143C15.7539 18.2143 18.2545 15.7398 18.2545 12.6948C18.2545 9.65373 15.7539 7.17535 12.6803 7.17535C9.60679 7.17535 7.10614 9.64987 7.10614 12.6948ZM8.19775 12.6948C8.19775 10.2473 10.2107 8.25458 12.6803 8.25458C15.1539 8.25458 17.1629 10.2473 17.1629 12.6948C17.1629 15.1424 15.15 17.1351 12.6803 17.1351C10.2068 17.1351 8.19775 15.1424 8.19775 12.6948Z" fill="#004651"/>
</svg>
